<svg width="500" height="500" version="1.1" xmlns="http://www.w3.org/2000/svg" desc="Created with imagetracer.js version 1.2.6" ><path fill="rgb(251,232,218)" stroke="rgb(251,232,218)" stroke-width="1" opacity="1" d="M 320.5 112 L 323 112.5 L 320.5 113 L 320.5 112 Z " /><path fill="rgb(251,232,218)" stroke="rgb(251,232,218)" stroke-width="1" opacity="1" d="M 339.5 112 L 343 112.5 L 339.5 113 L 339.5 112 Z " /><path fill="rgb(251,232,218)" stroke="rgb(251,232,218)" stroke-width="1" opacity="1" d="M 347.5 113 L 350 113.5 L 347.5 114 L 347.5 113 Z " /><path fill="rgb(251,232,218)" stroke="rgb(251,232,218)" stroke-width="1" opacity="1" d="M 114.5 114 L 123 114.5 L 114.5 115 L 114.5 114 Z " /><path fill="rgb(251,232,218)" stroke="rgb(251,232,218)" stroke-width="1" opacity="1" d="M 129.5 117 L 132.5 121 L 129.5 117 Z " /><path fill="rgb(251,232,218)" stroke="rgb(251,232,218)" stroke-width="1" opacity="1" d="M 174.5 117 L 177 117.5 L 174.5 118 L 174.5 117 Z " /><path fill="rgb(251,232,218)" stroke="rgb(251,232,218)" stroke-width="1" opacity="1" d="M 286.5 124 L 285.5 126 L 286.5 124 Z " /><path fill="rgb(251,232,218)" stroke="rgb(251,232,218)" stroke-width="1" opacity="1" d="M 283.5 126 L 282.5 128 L 283.5 126 Z " /><path fill="rgb(251,232,218)" stroke="rgb(251,232,218)" stroke-width="1" opacity="1" d="M 101.5 128 L 102 135.5 L 101 135.5 L 101.5 128 Z " /><path fill="rgb(251,232,218)" stroke="rgb(251,232,218)" stroke-width="1" opacity="1" d="M 279.5 129 L 278.5 131 L 279.5 129 Z " /><path fill="rgb(251,232,218)" stroke="rgb(251,232,218)" stroke-width="1" opacity="1" d="M 401.5 132 L 402.5 134 L 401.5 132 Z " /><path fill="rgb(251,232,218)" stroke="rgb(251,232,218)" stroke-width="1" opacity="1" d="M 274.5 133 L 268.5 140 L 274.5 133 Z " /><path fill="rgb(251,232,218)" stroke="rgb(251,232,218)" stroke-width="1" opacity="1" d="M 227.5 137 L 228.5 139 L 227.5 137 Z " /><path fill="rgb(251,232,218)" stroke="rgb(251,232,218)" stroke-width="1" opacity="1" d="M 231.5 140 L 232.5 142 L 231.5 140 Z " /><path fill="rgb(251,232,218)" stroke="rgb(251,232,218)" stroke-width="1" opacity="1" d="M 104.5 142 L 105.5 144 L 104.5 142 Z " /><path fill="rgb(251,232,218)" stroke="rgb(251,232,218)" stroke-width="1" opacity="1" d="M 131.5 144 L 130.5 146 L 131.5 144 Z " /><path fill="rgb(251,232,218)" stroke="rgb(251,232,218)" stroke-width="1" opacity="1" d="M 236.5 144 L 239.5 148 L 236.5 144 Z " /><path fill="rgb(251,232,218)" stroke="rgb(251,232,218)" stroke-width="1" opacity="1" d="M 107.5 145 L 108.5 147 L 107.5 145 Z " /><path fill="rgb(251,232,218)" stroke="rgb(251,232,218)" stroke-width="1" opacity="1" d="M 162.5 145 L 161.5 147 L 162.5 145 Z " /><path fill="rgb(251,232,218)" stroke="rgb(251,232,218)" stroke-width="1" opacity="1" d="M 263.5 146 L 262.5 148 L 263.5 146 Z " /><path fill="rgb(251,232,218)" stroke="rgb(251,232,218)" stroke-width="1" opacity="1" d="M 159.5 149 L 158.5 151 L 159.5 149 Z " /><path fill="rgb(251,232,218)" stroke="rgb(251,232,218)" stroke-width="1" opacity="1" d="M 249.5 157 L 251.5 160 L 249.5 157 Z " /><path fill="rgb(251,232,218)" stroke="rgb(251,232,218)" stroke-width="1" opacity="1" d="M 148.5 160 L 147.5 162 L 148.5 160 Z " /><path fill="rgb(251,232,218)" stroke="rgb(251,232,218)" stroke-width="1" opacity="1" d="M 255.5 162 L 254.5 164 L 255.5 162 Z " /><path fill="rgb(251,232,218)" stroke="rgb(251,232,218)" stroke-width="1" opacity="1" d="M 144.5 163 L 144.5 165 L 155 165.5 L 143 166 L 144.5 163 Z " /><path fill="rgb(251,232,218)" stroke="rgb(251,232,218)" stroke-width="1" opacity="1" d="M 379.5 176 L 380.5 178 L 379.5 176 Z " /><path fill="rgb(251,232,218)" stroke="rgb(251,232,218)" stroke-width="1" opacity="1" d="M 95.5 177 L 100 177.5 L 95.5 178 L 95.5 177 Z " /><path fill="rgb(251,232,218)" stroke="rgb(251,232,218)" stroke-width="1" opacity="1" d="M 103.5 177 L 107 177.5 L 103.5 178 L 103.5 177 Z " /><path fill="rgb(251,232,218)" stroke="rgb(251,232,218)" stroke-width="1" opacity="1" d="M 193.5 179 L 194.5 181 L 193.5 179 Z " /><path fill="rgb(251,232,218)" stroke="rgb(251,232,218)" stroke-width="1" opacity="1" d="M 202.5 188 L 204.5 191 L 202.5 188 Z " /><path fill="rgb(251,232,218)" stroke="rgb(251,232,218)" stroke-width="1" opacity="1" d="M 309.5 192 L 312.5 196 L 309.5 192 Z " /><path fill="rgb(251,232,218)" stroke="rgb(251,232,218)" stroke-width="1" opacity="1" d="M 315.5 197 L 316.5 199 L 315.5 197 Z " /><path fill="rgb(251,232,218)" stroke="rgb(251,232,218)" stroke-width="1" opacity="1" d="M 218.5 225 L 219 227.5 L 218 227.5 L 218.5 225 Z " /><path fill="rgb(251,232,218)" stroke="rgb(251,232,218)" stroke-width="1" opacity="1" d="M 377.5 229 L 378.5 231 L 377.5 229 Z " /><path fill="rgb(251,232,218)" stroke="rgb(251,232,218)" stroke-width="1" opacity="1" d="M 381.5 232 L 382.5 234 L 381.5 232 Z " /><path fill="rgb(251,232,218)" stroke="rgb(251,232,218)" stroke-width="1" opacity="1" d="M 278.5 234 L 279.5 236 L 278.5 234 Z " /><path fill="rgb(251,232,218)" stroke="rgb(251,232,218)" stroke-width="1" opacity="1" d="M 385.5 235 L 387.5 238 L 385.5 235 Z " /><path fill="rgb(251,232,218)" stroke="rgb(251,232,218)" stroke-width="1" opacity="1" d="M 285.5 239 L 286.5 241 L 285.5 239 Z " /><path fill="rgb(251,232,218)" stroke="rgb(251,232,218)" stroke-width="1" opacity="1" d="M 218.5 243 L 219 245.5 L 218 245.5 L 218.5 243 Z " /><path fill="rgb(251,232,218)" stroke="rgb(251,232,218)" stroke-width="1" opacity="1" d="M 394.5 243 L 395.5 245 L 394.5 243 Z " /><path fill="rgb(251,232,218)" stroke="rgb(251,232,218)" stroke-width="1" opacity="1" d="M 399.5 249 L 400.5 251 L 399.5 249 Z " /><path fill="rgb(251,232,218)" stroke="rgb(251,232,218)" stroke-width="1" opacity="1" d="M 341.5 269 L 342.5 271 L 341.5 269 Z " /><path fill="rgb(251,232,218)" stroke="rgb(251,232,218)" stroke-width="1" opacity="1" d="M 411.5 281 L 412 284.5 L 411 284.5 L 411.5 281 Z " /><path fill="rgb(251,232,218)" stroke="rgb(251,232,218)" stroke-width="1" opacity="1" d="M 201.5 284 L 194.5 292 L 201.5 284 Z " /><path fill="rgb(251,232,218)" stroke="rgb(251,232,218)" stroke-width="1" opacity="1" d="M 191.5 293 L 190.5 295 L 191.5 293 Z " /><path fill="rgb(251,232,218)" stroke="rgb(251,232,218)" stroke-width="1" opacity="1" d="M 410.5 294 L 411 296.5 L 410 296.5 L 410.5 294 Z " /><path fill="rgb(251,232,218)" stroke="rgb(251,232,218)" stroke-width="1" opacity="1" d="M 143.5 306 L 153 306.5 L 143.5 307 L 143.5 306 Z " /><path fill="rgb(251,232,218)" stroke="rgb(251,232,218)" stroke-width="1" opacity="1" d="M 384.5 307 L 389 307.5 L 384.5 308 L 384.5 307 Z " /><path fill="rgb(251,232,218)" stroke="rgb(251,232,218)" stroke-width="1" opacity="1" d="M 390.5 307 L 396 307.5 L 390.5 308 L 390.5 307 Z " /><path fill="rgb(251,232,218)" stroke="rgb(251,232,218)" stroke-width="1" opacity="1" d="M 310.5 308 L 313 308.5 L 310.5 309 L 310.5 308 Z " /><path fill="rgb(251,232,218)" stroke="rgb(251,232,218)" stroke-width="1" opacity="1" d="M 323.5 308 L 327 308.5 L 323.5 309 L 323.5 308 Z " /><path fill="rgb(251,232,218)" stroke="rgb(251,232,218)" stroke-width="1" opacity="1" d="M 407.5 309 L 406.5 311 L 407.5 309 Z " /><path fill="rgb(251,232,218)" stroke="rgb(251,232,218)" stroke-width="1" opacity="1" d="M 363.5 316 L 357.5 323 L 363.5 316 Z " /><path fill="rgb(251,232,218)" stroke="rgb(251,232,218)" stroke-width="1" opacity="1" d="M 229.5 332 L 228.5 334 L 229.5 332 Z " /><path fill="rgb(251,232,218)" stroke="rgb(251,232,218)" stroke-width="1" opacity="1" d="M 236.5 332 L 237.5 334 L 236.5 332 Z " /><path fill="rgb(251,232,218)" stroke="rgb(251,232,218)" stroke-width="1" opacity="1" d="M 377.5 333 L 375.5 336 L 377.5 333 Z " /><path fill="rgb(251,232,218)" stroke="rgb(251,232,218)" stroke-width="1" opacity="1" d="M 373.5 337 L 372.5 339 L 373.5 337 Z " /><path fill="rgb(251,232,218)" stroke="rgb(251,232,218)" stroke-width="1" opacity="1" d="M 404.5 345 L 405 352.5 L 404 352.5 L 404.5 345 Z " /><path fill="rgb(251,232,218)" stroke="rgb(251,232,218)" stroke-width="1" opacity="1" d="M 179.5 353 L 182 353.5 L 179.5 354 L 179.5 353 Z " /><path fill="rgb(251,232,218)" stroke="rgb(251,232,218)" stroke-width="1" opacity="1" d="M 88.5 355 L 162 355.5 L 88.5 356 L 88.5 355 Z " /><path fill="rgb(251,232,218)" stroke="rgb(251,232,218)" stroke-width="1" opacity="1" d="M 294.5 357 L 297 357.5 L 294.5 358 L 294.5 357 Z " /><path fill="rgb(251,232,218)" stroke="rgb(251,232,218)" stroke-width="1" opacity="1" d="M 310.5 359 L 335 359.5 L 310.5 360 L 310.5 359 Z " /><path fill="rgb(251,232,218)" stroke="rgb(251,232,218)" stroke-width="1" opacity="1" d="M 400.5 360 L 398.5 363 L 400.5 360 Z " /><path fill="rgb(251,232,218)" stroke="rgb(251,232,218)" stroke-width="1" opacity="1" d="M 168.5 361 L 176 361.5 L 168.5 362 L 168.5 361 Z " /><path fill="rgb(251,232,218)" stroke="rgb(251,232,218)" stroke-width="1" opacity="1" d="M 185 361 L 195 361.5 L 186 362 L 185.5 377 L 185 361 Z " /><path fill="rgb(251,232,218)" stroke="rgb(251,232,218)" stroke-width="1" opacity="1" d="M 200.5 361 L 208 361.5 L 200.5 362 L 200.5 361 Z " /><path fill="rgb(251,232,218)" stroke="rgb(251,232,218)" stroke-width="1" opacity="1" d="M 220.5 361 L 225 361.5 L 220.5 362 L 220.5 361 Z " /><path fill="rgb(251,232,218)" stroke="rgb(251,232,218)" stroke-width="1" opacity="1" d="M 250.5 361 L 262 361.5 L 250.5 362 L 250.5 361 Z " /><path fill="rgb(251,232,218)" stroke="rgb(251,232,218)" stroke-width="1" opacity="1" d="M 285.5 361 L 289 361.5 L 285.5 362 L 285.5 361 Z " /><path fill="rgb(251,232,218)" stroke="rgb(251,232,218)" stroke-width="1" opacity="1" d="M 295.5 361 Q 299.9 359.5 299 362.5 L 293 367.5 L 297.5 362 Q 294.5 362.5 295.5 361 Z " /><path fill="rgb(251,232,218)" stroke="rgb(251,232,218)" stroke-width="1" opacity="1" d="M 209.5 362 L 210.5 364 L 209.5 362 Z " /><path fill="rgb(251,232,218)" stroke="rgb(251,232,218)" stroke-width="1" opacity="1" d="M 218.5 362 L 216.5 365 L 218.5 362 Z " /><path fill="rgb(251,232,218)" stroke="rgb(251,232,218)" stroke-width="1" opacity="1" d="M 226.5 362 L 228.5 365 L 226.5 362 Z " /><path fill="rgb(251,232,218)" stroke="rgb(251,232,218)" stroke-width="1" opacity="1" d="M 244.5 362 L 246 364.5 L 245 364.5 L 244.5 362 Z " /><path fill="rgb(251,232,218)" stroke="rgb(251,232,218)" stroke-width="1" opacity="1" d="M 277.5 362 L 279.5 365 L 277.5 362 Z " /><path fill="rgb(251,232,218)" stroke="rgb(251,232,218)" stroke-width="1" opacity="1" d="M 171.5 365 L 172 373.5 L 171 373.5 L 171.5 365 Z " /><path fill="rgb(251,232,218)" stroke="rgb(251,232,218)" stroke-width="1" opacity="1" d="M 220.5 365 L 219.5 367 L 220.5 365 Z " /><path fill="rgb(251,232,218)" stroke="rgb(251,232,218)" stroke-width="1" opacity="1" d="M 224.5 365 L 225.5 367 L 224.5 365 Z " /><path fill="rgb(251,232,218)" stroke="rgb(251,232,218)" stroke-width="1" opacity="1" d="M 194.5 367 L 195 371 L 189 370.5 L 194 370 L 194.5 367 Z " /><path fill="rgb(251,232,218)" stroke="rgb(251,232,218)" stroke-width="1" opacity="1" d="M 204.5 367 L 207 367.5 L 204.5 368 L 204.5 367 Z " /><path fill="rgb(251,232,218)" stroke="rgb(251,232,218)" stroke-width="1" opacity="1" d="M 177.5 368 L 178 370.5 L 177 370.5 L 177.5 368 Z " /><path fill="rgb(251,232,218)" stroke="rgb(251,232,218)" stroke-width="1" opacity="1" d="M 218.5 368 L 219 370.5 L 218 370.5 L 218.5 368 Z " /><path fill="rgb(251,232,218)" stroke="rgb(251,232,218)" stroke-width="1" opacity="1" d="M 226.5 368 L 227 370.5 L 226 370.5 L 226.5 368 Z " /><path fill="rgb(251,232,218)" stroke="rgb(251,232,218)" stroke-width="1" opacity="1" d="M 265.5 368 L 266 370.5 L 265 370.5 L 265.5 368 Z " /><path fill="rgb(251,232,218)" stroke="rgb(251,232,218)" stroke-width="1" opacity="1" d="M 240.5 371 L 243 372.5 L 241.5 372 L 240.5 371 Z " /><path fill="rgb(251,232,218)" stroke="rgb(251,232,218)" stroke-width="1" opacity="1" d="M 246.5 371 L 247 373.5 L 246 373.5 L 246.5 371 Z " /><path fill="rgb(251,232,218)" stroke="rgb(251,232,218)" stroke-width="1" opacity="1" d="M 289.5 371 L 292 372.5 L 290.5 372 L 289.5 371 Z " /><path fill="rgb(251,232,218)" stroke="rgb(251,232,218)" stroke-width="1" opacity="1" d="M 236.5 372 L 239 373.5 L 237.5 373 L 236.5 372 Z " /><path fill="rgb(251,232,218)" stroke="rgb(251,232,218)" stroke-width="1" opacity="1" d="M 216.5 374 L 217.5 376 L 216.5 374 Z " /><path fill="rgb(251,232,218)" stroke="rgb(251,232,218)" stroke-width="1" opacity="1" d="M 228.5 374 L 227.5 376 L 228.5 374 Z " /><path fill="rgb(251,232,218)" stroke="rgb(251,232,218)" stroke-width="1" opacity="1" d="M 297.5 374 L 299.5 377 L 297.5 374 Z " /><path fill="rgb(251,232,218)" stroke="rgb(251,232,218)" stroke-width="1" opacity="1" d="M 235.5 375 L 236.5 377 L 235.5 375 Z " /><path fill="rgb(251,232,218)" stroke="rgb(251,232,218)" stroke-width="1" opacity="1" d="M 221.5 377 L 224 377.5 L 221.5 378 L 221.5 377 Z " /><path fill="rgb(251,232,218)" stroke="rgb(251,232,218)" stroke-width="1" opacity="1" d="M 239.5 377 L 242 377.5 L 239.5 378 L 239.5 377 Z " /><path fill="rgb(251,232,218)" stroke="rgb(251,232,218)" stroke-width="1" opacity="1" d="M 272.5 377 L 275 377.5 L 272.5 378 L 272.5 377 Z " /><path fill="rgb(251,232,218)" stroke="rgb(251,232,218)" stroke-width="1" opacity="1" d="M 173.5 383 L 174.5 385 L 173.5 383 Z " /><path fill="rgb(251,232,218)" stroke="rgb(251,232,218)" stroke-width="1" opacity="1" d="M 187.5 383 L 186.5 385 L 187.5 383 Z " /><path fill="rgb(251,232,218)" stroke="rgb(251,232,218)" stroke-width="1" opacity="1" d="M 194.5 383 L 195.5 385 L 194.5 383 Z " /><path fill="rgb(251,232,218)" stroke="rgb(251,232,218)" stroke-width="1" opacity="1" d="M 207.5 383 L 208 394.5 L 207 394.5 L 207.5 383 Z " /><path fill="rgb(251,232,218)" stroke="rgb(251,232,218)" stroke-width="1" opacity="1" d="M 230.5 383 L 231 394.5 L 230 394.5 L 230.5 383 Z " /><path fill="rgb(251,232,218)" stroke="rgb(251,232,218)" stroke-width="1" opacity="1" d="M 239.5 385 L 240 387.5 L 239 387.5 L 239.5 385 Z " /><path fill="rgb(251,232,218)" stroke="rgb(251,232,218)" stroke-width="1" opacity="1" d="M 274.5 387 L 275.5 389 L 274.5 387 Z " /><path fill="rgb(251,232,218)" stroke="rgb(251,232,218)" stroke-width="1" opacity="1" d="M 296.5 389 L 297 394.5 L 296 394.5 L 296.5 389 Z " /><path fill="rgb(251,232,218)" stroke="rgb(251,232,218)" stroke-width="1" opacity="1" d="M 167.5 391 L 168.5 393 L 167.5 391 Z " /><path fill="rgb(251,232,218)" stroke="rgb(251,232,218)" stroke-width="1" opacity="1" d="M 253.5 391 L 258 391.5 L 253.5 392 L 253.5 391 Z " /><path fill="rgb(251,232,218)" stroke="rgb(251,232,218)" stroke-width="1" opacity="1" d="M 186.5 393 L 187.5 395 L 186.5 393 Z " /><path fill="rgb(251,232,218)" stroke="rgb(251,232,218)" stroke-width="1" opacity="1" d="M 195.5 393 L 194.5 395 L 195.5 393 Z " /><path fill="rgb(255,255,254)" stroke="rgb(255,255,254)" stroke-width="1" opacity="1" d="M 281.5 127 L 280.5 129 L 281.5 127 Z " /><path fill="rgb(255,255,254)" stroke="rgb(255,255,254)" stroke-width="1" opacity="1" d="M 136.5 129 L 137 134.5 L 136 134.5 L 136.5 129 Z " /><path fill="rgb(255,255,254)" stroke="rgb(255,255,254)" stroke-width="1" opacity="1" d="M 276.5 131 L 275.5 133 L 276.5 131 Z " /><path fill="rgb(255,255,254)" stroke="rgb(255,255,254)" stroke-width="1" opacity="1" d="M 403.5 133 L 405 135.5 L 404 135.5 L 403.5 133 Z " /><path fill="rgb(255,255,254)" stroke="rgb(255,255,254)" stroke-width="1" opacity="1" d="M 267.5 140 L 266.5 142 L 267.5 140 Z " /><path fill="rgb(255,255,254)" stroke="rgb(255,255,254)" stroke-width="1" opacity="1" d="M 133.5 142 L 132.5 144 L 133.5 142 Z " /><path fill="rgb(255,255,254)" stroke="rgb(255,255,254)" stroke-width="1" opacity="1" d="M 234.5 142 L 235.5 144 L 234.5 142 Z " /><path fill="rgb(255,255,254)" stroke="rgb(255,255,254)" stroke-width="1" opacity="1" d="M 114.5 149 L 118 149.5 L 114.5 150 L 114.5 149 Z " /><path fill="rgb(255,255,254)" stroke="rgb(255,255,254)" stroke-width="1" opacity="1" d="M 120.5 149 L 123 149.5 L 120.5 150 L 120.5 149 Z " /><path fill="rgb(255,255,254)" stroke="rgb(255,255,254)" stroke-width="1" opacity="1" d="M 157.5 151 L 154.5 155 L 157.5 151 Z " /><path fill="rgb(255,255,254)" stroke="rgb(255,255,254)" stroke-width="1" opacity="1" d="M 244.5 151 L 245.5 153 L 244.5 151 Z " /><path fill="rgb(255,255,254)" stroke="rgb(255,255,254)" stroke-width="1" opacity="1" d="M 151.5 157 L 149.5 160 L 151.5 157 Z " /><path fill="rgb(255,255,254)" stroke="rgb(255,255,254)" stroke-width="1" opacity="1" d="M 252.5 160 L 253.5 162 L 252.5 160 Z " /><path fill="rgb(255,255,254)" stroke="rgb(255,255,254)" stroke-width="1" opacity="1" d="M 312.5 168 L 309.5 172 L 312.5 168 Z " /><path fill="rgb(255,255,254)" stroke="rgb(255,255,254)" stroke-width="1" opacity="1" d="M 195.5 181 L 198.5 185 L 195.5 181 Z " /><path fill="rgb(255,255,254)" stroke="rgb(255,255,254)" stroke-width="1" opacity="1" d="M 200.5 186 L 201.5 188 L 200.5 186 Z " /><path fill="rgb(255,255,254)" stroke="rgb(255,255,254)" stroke-width="1" opacity="1" d="M 379.5 230 L 380.5 232 L 379.5 230 Z " /><path fill="rgb(255,255,254)" stroke="rgb(255,255,254)" stroke-width="1" opacity="1" d="M 383.5 233 L 384.5 235 L 383.5 233 Z " /><path fill="rgb(255,255,254)" stroke="rgb(255,255,254)" stroke-width="1" opacity="1" d="M 278.5 235 L 279 237.5 L 278 237.5 L 278.5 235 Z " /><path fill="rgb(255,255,254)" stroke="rgb(255,255,254)" stroke-width="1" opacity="1" d="M 390.5 239 L 393.5 243 L 390.5 239 Z " /><path fill="rgb(255,255,254)" stroke="rgb(255,255,254)" stroke-width="1" opacity="1" d="M 396.5 245 L 398.5 248 L 396.5 245 Z " /><path fill="rgb(255,255,254)" stroke="rgb(255,255,254)" stroke-width="1" opacity="1" d="M 343.5 271 L 344.5 273 L 343.5 271 Z " /><path fill="rgb(255,255,254)" stroke="rgb(255,255,254)" stroke-width="1" opacity="1" d="M 204.5 280 L 203.5 282 L 204.5 280 Z " /><path fill="rgb(255,255,254)" stroke="rgb(255,255,254)" stroke-width="1" opacity="1" d="M 267.5 288 L 268.5 290 L 267.5 288 Z " /><path fill="rgb(255,255,254)" stroke="rgb(255,255,254)" stroke-width="1" opacity="1" d="M 346.5 299 L 344.5 302 L 346.5 299 Z " /><path fill="rgb(255,255,254)" stroke="rgb(255,255,254)" stroke-width="1" opacity="1" d="M 366.5 314 L 365.5 316 L 366.5 314 Z " /><path fill="rgb(255,255,254)" stroke="rgb(255,255,254)" stroke-width="1" opacity="1" d="M 398.5 334 L 400.5 337 L 398.5 334 Z " /><path fill="rgb(255,255,254)" stroke="rgb(255,255,254)" stroke-width="1" opacity="1" d="M 369.5 345 L 370 351.5 L 369 351.5 L 369.5 345 Z " /><path fill="rgb(255,255,254)" stroke="rgb(255,255,254)" stroke-width="1" opacity="1" d="M 307.5 359 L 310 359.5 L 307.5 360 L 307.5 359 Z " /><path fill="rgb(255,255,254)" stroke="rgb(255,255,254)" stroke-width="1" opacity="1" d="M 195.5 361 L 196 364.5 L 195 364.5 L 195.5 361 Z " /><path fill="rgb(255,255,254)" stroke="rgb(255,255,254)" stroke-width="1" opacity="1" d="M 294.5 361 L 289.5 367 L 294.5 361 Z " /><path fill="rgb(255,255,254)" stroke="rgb(255,255,254)" stroke-width="1" opacity="1" d="M 178.5 362 L 179.5 364 L 178.5 362 Z " /><path fill="rgb(255,255,254)" stroke="rgb(255,255,254)" stroke-width="1" opacity="1" d="M 268.5 362 L 267.5 364 L 268.5 362 Z " /><path fill="rgb(255,255,254)" stroke="rgb(255,255,254)" stroke-width="1" opacity="1" d="M 175.5 365 L 176.5 367 L 175.5 365 Z " /><path fill="rgb(255,255,254)" stroke="rgb(255,255,254)" stroke-width="1" opacity="1" d="M 234.5 365 L 235 367.5 L 234 367.5 L 234.5 365 Z " /><path fill="rgb(255,255,254)" stroke="rgb(255,255,254)" stroke-width="1" opacity="1" d="M 384.5 366 L 390 366.5 L 384.5 367 L 384.5 366 Z " /><path fill="rgb(255,255,254)" stroke="rgb(255,255,254)" stroke-width="1" opacity="1" d="M 210.5 369 L 209.5 371 L 210.5 369 Z " /><path fill="rgb(255,255,254)" stroke="rgb(255,255,254)" stroke-width="1" opacity="1" d="M 293.5 369 L 295.5 372 L 293.5 369 Z " /><path fill="rgb(255,255,254)" stroke="rgb(255,255,254)" stroke-width="1" opacity="1" d="M 195.5 374 L 196 376.5 L 195 376.5 L 195.5 374 Z " /><path fill="rgb(255,255,254)" stroke="rgb(255,255,254)" stroke-width="1" opacity="1" d="M 292.5 374 L 294.5 377 L 292.5 374 Z " /><path fill="rgb(255,255,254)" stroke="rgb(255,255,254)" stroke-width="1" opacity="1" d="M 207.5 382 L 210 382.5 L 207.5 383 L 207.5 382 Z " /><path fill="rgb(255,255,254)" stroke="rgb(255,255,254)" stroke-width="1" opacity="1" d="M 231.5 382 L 236 382.5 L 231.5 383 L 231.5 382 Z " /><path fill="rgb(255,255,254)" stroke="rgb(255,255,254)" stroke-width="1" opacity="1" d="M 254.5 382 L 257 382.5 L 254.5 383 L 254.5 382 Z " /><path fill="rgb(255,255,254)" stroke="rgb(255,255,254)" stroke-width="1" opacity="1" d="M 272.5 382 L 274 382.5 L 272 383 L 271.5 395 L 271 383.5 L 272.5 382 Z " /><path fill="rgb(255,255,254)" stroke="rgb(255,255,254)" stroke-width="1" opacity="1" d="M 280.5 382 L 283 382.5 L 280.5 383 L 280.5 382 Z " /><path fill="rgb(255,255,254)" stroke="rgb(255,255,254)" stroke-width="1" opacity="1" d="M 292.5 382 L 295 382.5 L 292.5 383 L 292.5 382 Z " /><path fill="rgb(255,255,254)" stroke="rgb(255,255,254)" stroke-width="1" opacity="1" d="M 300.5 382 L 303 382.5 L 300.5 383 L 300.5 382 Z " /><path fill="rgb(255,255,254)" stroke="rgb(255,255,254)" stroke-width="1" opacity="1" d="M 217.5 387 L 218 394.5 L 217 394.5 L 217.5 387 Z " /><path fill="rgb(255,255,255)" stroke="rgb(255,255,255)" stroke-width="1" opacity="1" d="M 0 0 L 500 0 L 500 500 L 0 500 L 0 0 Z M 320 112 L 309 114 L 298 118 Q 286 123 277 131 Q 261 143 255 163 L 245 151 Q 242 152 243 149 L 227 136 L 209 126 Q 193 119 174 117 Q 169 141 154 156 Q 143 167 128 173 L 113 177 L 103 177 L 102 178 L 101 177 L 91 177 L 90 176 L 88 177 L 88 356 L 163 356 L 164 355 L 182 354 L 204 348 Q 220 342 233 331 L 235 331 L 251 342 L 272 352 L 285 356 L 308 360 L 335 360 L 350 357 L 349 356 Q 348 345 350 338 L 357 324 Q 365 312 382 308 L 399 308 L 408 311 L 410 304 L 411 288 L 412 287 L 411 272 L 409 265 L 399 248 Q 388 235 374 226 L 355 216 L 323 202 L 314 196 Q 308 192 306 186 L 306 181 L 308 174 L 318 165 L 329 162 L 339 162 L 357 166 L 374 173 L 383 179 L 405 135 Q 375 111 320 112 Z M 115 114 L 109 117 Q 106 116 107 119 L 105 119 L 101 128 Q 100 138 104 143 Q 107 148 115 150 Q 126 151 131 146 Q 136 142 137 135 L 137 130 L 134 122 Q 129 113 115 114 Z M 383 331 L 373 336 L 369 346 Q 368 356 373 361 Q 377 366 385 367 Q 394 367 399 363 L 405 354 Q 406 342 401 337 Q 396 329 383 331 Z M 168 361 L 168 377 L 178 377 L 181 374 Q 182 367 180 364 Q 176 360 168 361 Z M 185 361 L 185 377 L 196 377 L 196 374 L 189 374 L 189 371 L 195 371 L 195 367 L 189 367 L 190 365 L 196 365 L 196 361 L 185 361 Z M 200 361 L 200 377 L 204 377 L 204 371 L 210 371 L 212 368 L 211 364 L 209 361 L 200 361 Z M 221 361 L 219 362 L 215 366 L 214 370 L 215 374 L 221 378 L 227 377 Q 232 375 230 366 Q 228 360 221 361 Z M 239 361 L 237 362 L 234 366 L 235 370 L 242 372 L 241 374 L 238 372 L 236 373 Q 233 372 234 375 L 239 378 L 245 377 L 247 374 L 246 370 L 241 367 Q 238 368 239 365 L 245 366 L 246 364 Q 244 360 239 361 Z M 250 361 L 250 365 L 254 366 L 254 377 L 258 377 L 258 365 L 262 365 L 262 361 L 250 361 Z M 271 361 L 269 362 L 265 368 L 266 374 L 272 378 L 278 377 L 281 373 L 280 365 Q 278 360 271 361 Z M 285 361 L 285 377 L 289 377 L 289 372 L 291 372 L 295 377 L 300 377 L 296 372 L 293 369 L 300 362 L 295 361 L 289 366 Q 291 359 285 361 Z M 170 382 L 165 384 L 164 387 Q 163 392 165 394 L 170 396 L 174 395 L 175 393 Q 173 389 172 393 Q 168 394 167 391 Q 166 386 170 385 L 173 386 L 175 385 L 170 382 Z M 190 382 L 188 383 Q 183 385 185 393 L 190 396 L 195 395 Q 199 393 197 386 Q 196 381 190 382 Z M 207 382 L 207 395 L 210 395 L 211 388 L 213 391 L 217 389 L 217 395 L 220 395 L 220 382 L 215 386 Q 216 388 214 387 L 211 384 L 207 382 Z M 232 382 L 230 384 L 230 395 L 233 395 L 233 390 Q 239 391 240 388 L 239 383 L 232 382 Z M 254 382 L 249 395 L 253 394 L 253 392 L 258 392 L 260 395 L 262 395 L 257 384 Q 258 381 254 382 Z M 273 382 L 271 384 L 271 395 L 274 395 L 275 388 L 279 394 L 279 395 L 283 395 L 283 383 L 280 382 L 280 390 L 276 385 L 273 382 Z M 292 382 L 296 389 L 296 395 L 299 395 L 299 390 L 303 385 Q 304 380 300 382 L 298 386 L 297 385 Q 296 381 292 382 Z " /><path fill="rgb(255,255,255)" stroke="rgb(255,255,255)" stroke-width="1" opacity="1" d="M 143 166 L 161.5 166 L 174.5 169 L 188.5 176 L 200 185 L 209 197.5 L 214 207.5 L 218 221.5 L 219 241.5 L 218 242.5 L 217 254.5 L 210 272.5 Q 203.3 283.8 193.5 292 Q 184 300 170.5 304 L 160.5 306 L 143 306 L 143 166 Z " /><path fill="rgb(255,255,255)" stroke="rgb(255,255,255)" stroke-width="1" opacity="1" d="M 279.5 236 L 298.5 248 L 327.5 261 L 347 274.5 Q 352.3 279.2 351 290.5 Q 348.9 298.9 342.5 303 L 330.5 308 L 314.5 309 L 304.5 307 L 290.5 302 L 268 288.5 L 274 272.5 L 274 268.5 L 277 259.5 L 278 238.5 L 279.5 236 Z " /><path fill="rgb(255,255,255)" stroke="rgb(255,255,255)" stroke-width="1" opacity="1" d="M 172 365 Q 175.8 364.3 177 367.5 Q 178 372 175.5 373 L 172 374 L 172 365 Z " /><path fill="rgb(255,255,255)" stroke="rgb(255,255,255)" stroke-width="1" opacity="1" d="M 204 365 Q 208.1 363.7 207 367 Q 202.9 368.3 204 365 Z " /><path fill="rgb(255,255,255)" stroke="rgb(255,255,255)" stroke-width="1" opacity="1" d="M 221.5 365 Q 225.5 364.5 226 367.5 L 225 373 L 222.5 374 L 219 371.5 Q 218 366 221.5 365 Z " /><path fill="rgb(255,255,255)" stroke="rgb(255,255,255)" stroke-width="1" opacity="1" d="M 272.5 365 L 276 366 L 277 370.5 Q 276.3 373.8 271.5 373 L 269 369.5 L 272.5 365 Z " /><path fill="rgb(255,255,255)" stroke="rgb(255,255,255)" stroke-width="1" opacity="1" d="M 190.5 385 L 194 386.5 L 195 389.5 L 194 392 L 190.5 393 L 188 392 L 187 388.5 L 188 386 L 190.5 385 Z " /><path fill="rgb(255,255,255)" stroke="rgb(255,255,255)" stroke-width="1" opacity="1" d="M 233 385 L 237 385 L 237 386.5 L 233 388 L 233 385 Z " /><path fill="rgb(32,32,32)" stroke="rgb(32,32,32)" stroke-width="1" opacity="1" d="M 168.5 383 Q 173 382 174 384.5 L 171.5 385 L 169.5 384 Q 165.3 384.8 166 390.5 L 170.5 394 L 173.5 392 L 174 393.5 Q 173 396 168.5 395 L 166 394 Q 164.4 391.9 165 386.5 L 166 384 L 168.5 383 Z " /><path fill="rgb(32,32,32)" stroke="rgb(32,32,32)" stroke-width="1" opacity="1" d="M 189.5 383 Q 195 382 196 385.5 L 197 390.5 L 194.5 394 L 189.5 395 L 186 392.5 L 185 387.5 L 187.5 384 L 189.5 383 Z M 191 384 L 188 385 L 187 388 L 188 392 L 189 393 L 194 393 L 195 391 L 194 385 L 191 384 Z " /><path fill="rgb(32,32,32)" stroke="rgb(32,32,32)" stroke-width="1" opacity="1" d="M 208 383 L 211 384.5 L 213.5 388 Q 215.8 388.8 215 386.5 L 220 383 L 220 394.5 L 218 395 L 217.5 386 L 213.5 391 L 210.5 387 L 209 387.5 L 209 394.5 L 208 394.5 L 208 383 Z " /><path fill="rgb(32,32,32)" stroke="rgb(32,32,32)" stroke-width="1" opacity="1" d="M 231 383 L 239 384 Q 240 388.7 236.5 390 L 233 390 L 233 395 L 231 395 L 231 383 Z M 233 384 L 233 388 Q 237 389 238 387 Q 237 383 233 384 Z " /><path fill="rgb(32,32,32)" stroke="rgb(32,32,32)" stroke-width="1" opacity="1" d="M 254 383 Q 258.1 381.3 257 385.5 L 261 395 Q 258 396.3 259 392.5 Q 258 390 253.5 391 L 252 395 Q 249.3 396.1 250 393.5 L 254 383 Z M 256 386 L 254 388 Q 253 392 257 390 L 256 386 Z " /><path fill="rgb(32,32,32)" stroke="rgb(32,32,32)" stroke-width="1" opacity="1" d="M 272 383 L 276 385.5 L 280.5 392 L 281.5 383 L 282 395 L 279 393.5 L 274.5 387 L 274 395 L 272 394.5 L 272 383 Z " /><path fill="rgb(32,32,32)" stroke="rgb(32,32,32)" stroke-width="1" opacity="1" d="M 293.5 383 L 296 384.5 L 297.5 387 Q 299.8 387.8 299 385.5 L 302 383.5 Q 297.7 387 299 395 Q 295 396.4 297 389.5 L 293.5 383 Z " /><path fill="rgb(249,176,122)" stroke="rgb(249,176,122)" stroke-width="1" opacity="1" d="M 323.5 112 L 339 112.5 L 323.5 113 L 323.5 112 Z " /><path fill="rgb(249,176,122)" stroke="rgb(249,176,122)" stroke-width="1" opacity="1" d="M 315.5 113 L 318 113.5 L 315.5 114 L 315.5 113 Z " /><path fill="rgb(249,176,122)" stroke="rgb(249,176,122)" stroke-width="1" opacity="1" d="M 108.5 117 L 105.5 121 L 108.5 117 Z " /><path fill="rgb(249,176,122)" stroke="rgb(249,176,122)" stroke-width="1" opacity="1" d="M 277.5 131 L 276.5 133 L 277.5 131 Z " /><path fill="rgb(249,176,122)" stroke="rgb(249,176,122)" stroke-width="1" opacity="1" d="M 268.5 140 L 266.5 143 L 268.5 140 Z " /><path fill="rgb(249,176,122)" stroke="rgb(249,176,122)" stroke-width="1" opacity="1" d="M 240.5 148 L 241.5 150 L 240.5 148 Z " /><path fill="rgb(249,176,122)" stroke="rgb(249,176,122)" stroke-width="1" opacity="1" d="M 244.5 152 L 248.5 157 L 244.5 152 Z " /><path fill="rgb(249,176,122)" stroke="rgb(249,176,122)" stroke-width="1" opacity="1" d="M 155.5 154 L 152.5 158 L 155.5 154 Z " /><path fill="rgb(249,176,122)" stroke="rgb(249,176,122)" stroke-width="1" opacity="1" d="M 331.5 161 L 337 161.5 L 331.5 162 L 331.5 161 Z " /><path fill="rgb(249,176,122)" stroke="rgb(249,176,122)" stroke-width="1" opacity="1" d="M 342.5 162 L 345 162.5 L 342.5 163 L 342.5 162 Z " /><path fill="rgb(249,176,122)" stroke="rgb(249,176,122)" stroke-width="1" opacity="1" d="M 155.5 165 L 160 165.5 L 155.5 166 L 155.5 165 Z " /><path fill="rgb(249,176,122)" stroke="rgb(249,176,122)" stroke-width="1" opacity="1" d="M 312.5 167 L 309.5 171 L 312.5 167 Z " /><path fill="rgb(249,176,122)" stroke="rgb(249,176,122)" stroke-width="1" opacity="1" d="M 88.5 177 L 89 354.5 L 88 354.5 L 88.5 177 Z " /><path fill="rgb(249,176,122)" stroke="rgb(249,176,122)" stroke-width="1" opacity="1" d="M 92.5 177 L 95 177.5 L 92.5 178 L 92.5 177 Z " /><path fill="rgb(249,176,122)" stroke="rgb(249,176,122)" stroke-width="1" opacity="1" d="M 107.5 177 L 110 177.5 L 107.5 178 L 107.5 177 Z " /><path fill="rgb(249,176,122)" stroke="rgb(249,176,122)" stroke-width="1" opacity="1" d="M 191.5 177 L 192.5 179 L 191.5 177 Z " /><path fill="rgb(249,176,122)" stroke="rgb(249,176,122)" stroke-width="1" opacity="1" d="M 305.5 180 L 306 185.5 L 305 185.5 L 305.5 180 Z " /><path fill="rgb(249,176,122)" stroke="rgb(249,176,122)" stroke-width="1" opacity="1" d="M 307.5 190 L 308.5 192 L 307.5 190 Z " /><path fill="rgb(249,176,122)" stroke="rgb(249,176,122)" stroke-width="1" opacity="1" d="M 313.5 196 L 314.5 198 L 313.5 196 Z " /><path fill="rgb(249,176,122)" stroke="rgb(249,176,122)" stroke-width="1" opacity="1" d="M 280.5 235 L 281.5 237 L 280.5 235 Z " /><path fill="rgb(249,176,122)" stroke="rgb(249,176,122)" stroke-width="1" opacity="1" d="M 388.5 238 L 393.5 244 L 388.5 238 Z " /><path fill="rgb(249,176,122)" stroke="rgb(249,176,122)" stroke-width="1" opacity="1" d="M 277.5 245 L 278 248.5 L 277 248.5 L 277.5 245 Z " /><path fill="rgb(249,176,122)" stroke="rgb(249,176,122)" stroke-width="1" opacity="1" d="M 395.5 245 L 398.5 249 L 395.5 245 Z " /><path fill="rgb(249,176,122)" stroke="rgb(249,176,122)" stroke-width="1" opacity="1" d="M 400.5 251 L 401.5 253 L 400.5 251 Z " /><path fill="rgb(249,176,122)" stroke="rgb(249,176,122)" stroke-width="1" opacity="1" d="M 336.5 265 L 337.5 267 L 336.5 265 Z " /><path fill="rgb(249,176,122)" stroke="rgb(249,176,122)" stroke-width="1" opacity="1" d="M 339.5 267 L 340.5 269 L 339.5 267 Z " /><path fill="rgb(249,176,122)" stroke="rgb(249,176,122)" stroke-width="1" opacity="1" d="M 343.5 270 L 345.5 273 L 343.5 270 Z " /><path fill="rgb(249,176,122)" stroke="rgb(249,176,122)" stroke-width="1" opacity="1" d="M 347.5 274 L 348.5 276 L 347.5 274 Z " /><path fill="rgb(249,176,122)" stroke="rgb(249,176,122)" stroke-width="1" opacity="1" d="M 410.5 274 L 411 276.5 L 410 276.5 L 410.5 274 Z " /><path fill="rgb(249,176,122)" stroke="rgb(249,176,122)" stroke-width="1" opacity="1" d="M 203.5 282 L 202.5 284 L 203.5 282 Z " /><path fill="rgb(249,176,122)" stroke="rgb(249,176,122)" stroke-width="1" opacity="1" d="M 351.5 286 L 352 289.5 L 351 289.5 L 351.5 286 Z " /><path fill="rgb(249,176,122)" stroke="rgb(249,176,122)" stroke-width="1" opacity="1" d="M 410.5 290 L 411 293.5 L 410 293.5 L 410.5 290 Z " /><path fill="rgb(249,176,122)" stroke="rgb(249,176,122)" stroke-width="1" opacity="1" d="M 347.5 299 L 345.5 302 L 347.5 299 Z " /><path fill="rgb(249,176,122)" stroke="rgb(249,176,122)" stroke-width="1" opacity="1" d="M 153.5 306 L 157 306.5 L 153.5 307 L 153.5 306 Z " /><path fill="rgb(249,176,122)" stroke="rgb(249,176,122)" stroke-width="1" opacity="1" d="M 381.5 307 L 384 307.5 L 381.5 308 L 381.5 307 Z " /><path fill="rgb(249,176,122)" stroke="rgb(249,176,122)" stroke-width="1" opacity="1" d="M 396.5 307 L 399 307.5 L 396.5 308 L 396.5 307 Z " /><path fill="rgb(249,176,122)" stroke="rgb(249,176,122)" stroke-width="1" opacity="1" d="M 327.5 308 L 330 308.5 L 327.5 309 L 327.5 308 Z " /><path fill="rgb(249,176,122)" stroke="rgb(249,176,122)" stroke-width="1" opacity="1" d="M 316.5 309 L 319 309.5 L 316.5 310 L 316.5 309 Z " /><path fill="rgb(249,176,122)" stroke="rgb(249,176,122)" stroke-width="1" opacity="1" d="M 365.5 314 L 364.5 316 L 365.5 314 Z " /><path fill="rgb(249,176,122)" stroke="rgb(249,176,122)" stroke-width="1" opacity="1" d="M 356.5 323 L 355.5 325 L 356.5 323 Z " /><path fill="rgb(249,176,122)" stroke="rgb(249,176,122)" stroke-width="1" opacity="1" d="M 234.5 330 L 235.5 332 L 234.5 330 Z " /><path fill="rgb(249,176,122)" stroke="rgb(249,176,122)" stroke-width="1" opacity="1" d="M 397.5 334 L 398.5 336 L 397.5 334 Z " /><path fill="rgb(249,176,122)" stroke="rgb(249,176,122)" stroke-width="1" opacity="1" d="M 400.5 337 L 401.5 339 L 400.5 337 Z " /><path fill="rgb(249,176,122)" stroke="rgb(249,176,122)" stroke-width="1" opacity="1" d="M 348.5 342 L 349 354.5 L 348 354.5 L 348.5 342 Z " /><path fill="rgb(249,176,122)" stroke="rgb(249,176,122)" stroke-width="1" opacity="1" d="M 170.5 354 L 173 354.5 L 170.5 355 L 170.5 354 Z " /><path fill="rgb(249,176,122)" stroke="rgb(249,176,122)" stroke-width="1" opacity="1" d="M 303.5 358 L 306 358.5 L 303.5 359 L 303.5 358 Z " /><path fill="rgb(249,176,122)" stroke="rgb(249,176,122)" stroke-width="1" opacity="1" d="M 337.5 358 L 340 358.5 L 337.5 359 L 337.5 358 Z " /><path fill="rgb(249,176,122)" stroke="rgb(249,176,122)" stroke-width="1" opacity="1" d="M 200.5 362 L 201 376.5 L 200 376.5 L 200.5 362 Z " /><path fill="rgb(249,176,122)" stroke="rgb(249,176,122)" stroke-width="1" opacity="1" d="M 269.5 362 L 267.5 365 L 269.5 362 Z " /><path fill="rgb(249,176,122)" stroke="rgb(249,176,122)" stroke-width="1" opacity="1" d="M 285.5 362 L 286 376.5 L 285 376.5 L 285.5 362 Z " /><path fill="rgb(249,176,122)" stroke="rgb(249,176,122)" stroke-width="1" opacity="1" d="M 178.5 363 L 179.5 365 L 178.5 363 Z " /><path fill="rgb(249,176,122)" stroke="rgb(249,176,122)" stroke-width="1" opacity="1" d="M 171.5 364 L 175 364.5 L 171.5 365 L 171.5 364 Z " /><path fill="rgb(249,176,122)" stroke="rgb(249,176,122)" stroke-width="1" opacity="1" d="M 189.5 364 L 195 364.5 L 189 365 Q 187.7 368.7 193.5 367 L 193.5 368 Q 189 369 188 366.5 L 189.5 364 Z " /><path fill="rgb(249,176,122)" stroke="rgb(249,176,122)" stroke-width="1" opacity="1" d="M 204.5 364 L 207 364.5 L 204 365 L 203.5 368 L 203 365.5 L 204.5 364 Z " /><path fill="rgb(249,176,122)" stroke="rgb(249,176,122)" stroke-width="1" opacity="1" d="M 239.5 364 L 242 364.5 L 238.5 366 L 239.5 364 Z " /><path fill="rgb(249,176,122)" stroke="rgb(249,176,122)" stroke-width="1" opacity="1" d="M 254.5 365 L 255 376.5 L 254 376.5 L 254.5 365 Z " /><path fill="rgb(249,176,122)" stroke="rgb(249,176,122)" stroke-width="1" opacity="1" d="M 257.5 365 L 258 376.5 L 257 376.5 L 257.5 365 Z " /><path fill="rgb(249,176,122)" stroke="rgb(249,176,122)" stroke-width="1" opacity="1" d="M 275.5 365 L 276.5 367 L 275.5 365 Z " /><path fill="rgb(249,176,122)" stroke="rgb(249,176,122)" stroke-width="1" opacity="1" d="M 210.5 368 L 208.5 371 L 207 370.5 L 210.5 368 Z " /><path fill="rgb(249,176,122)" stroke="rgb(249,176,122)" stroke-width="1" opacity="1" d="M 235.5 368 L 236.5 370 L 235.5 368 Z " /><path fill="rgb(249,176,122)" stroke="rgb(249,176,122)" stroke-width="1" opacity="1" d="M 277.5 368 L 278 370.5 L 277 370.5 L 277.5 368 Z " /><path fill="rgb(249,176,122)" stroke="rgb(249,176,122)" stroke-width="1" opacity="1" d="M 188.5 371 L 189 373.5 L 188 373.5 L 188.5 371 Z " /><path fill="rgb(249,176,122)" stroke="rgb(249,176,122)" stroke-width="1" opacity="1" d="M 203.5 371 L 204 376.5 L 203 376.5 L 203.5 371 Z " /><path fill="rgb(249,176,122)" stroke="rgb(249,176,122)" stroke-width="1" opacity="1" d="M 294.5 371 L 296.5 374 L 294.5 371 Z " /><path fill="rgb(249,176,122)" stroke="rgb(249,176,122)" stroke-width="1" opacity="1" d="M 292.5 373 L 293.5 375 L 292.5 373 Z " /><path fill="rgb(249,176,122)" stroke="rgb(249,176,122)" stroke-width="1" opacity="1" d="M 267.5 374 L 268.5 376 L 267.5 374 Z " /><path fill="rgb(249,176,122)" stroke="rgb(249,176,122)" stroke-width="1" opacity="1" d="M 280.5 383 L 281 391.5 L 278 389.5 L 280 389.5 L 280.5 383 Z " /><path fill="rgb(249,176,122)" stroke="rgb(249,176,122)" stroke-width="1" opacity="1" d="M 282.5 383 L 283 394.5 L 282 394.5 L 282.5 383 Z " /><path fill="rgb(249,176,122)" stroke="rgb(249,176,122)" stroke-width="1" opacity="1" d="M 233.5 384 L 236 384.5 L 233.5 385 L 233.5 384 Z " /><path fill="rgb(249,176,122)" stroke="rgb(249,176,122)" stroke-width="1" opacity="1" d="M 164.5 387 L 165 390.5 L 164 390.5 L 164.5 387 Z " /><path fill="rgb(249,176,122)" stroke="rgb(249,176,122)" stroke-width="1" opacity="1" d="M 209.5 387 L 210 394.5 L 209 394.5 L 209.5 387 Z " /><path fill="rgb(249,176,122)" stroke="rgb(249,176,122)" stroke-width="1" opacity="1" d="M 238.5 388 L 237.5 390 L 238.5 388 Z " /><path fill="rgb(249,176,122)" stroke="rgb(249,176,122)" stroke-width="1" opacity="1" d="M 215.5 389 L 214.5 391 L 215.5 389 Z " /><path fill="rgb(249,176,122)" stroke="rgb(249,176,122)" stroke-width="1" opacity="1" d="M 254.5 389 L 257 389.5 L 254.5 390 L 254.5 389 Z " /><path fill="rgb(254,121,35)" stroke="rgb(254,121,35)" stroke-width="1" opacity="1" d="M 238.5 362 L 245 363 Q 246.3 366 242.5 365 L 239.5 364 L 238 366.5 L 246 371.5 Q 246.5 376.5 242.5 377 Q 236.7 377.8 235 374.5 L 237.5 373 L 240.5 375 L 243 374 Q 244.7 369.9 240.5 371 L 235 367.5 Q 234.5 362.5 238.5 362 Z " /><path fill="rgb(254,121,35)" stroke="rgb(254,121,35)" stroke-width="1" opacity="1" d="M 251 362 L 260.5 362 L 261 364 L 257 365.5 L 257 376.5 L 255 377 L 255 364.5 L 251 364 L 251 362 Z " /><path fill="rgb(254,121,35)" stroke="rgb(254,121,35)" stroke-width="1" opacity="1" d="M 270.5 362 Q 277 361 279 364.5 L 280 372.5 Q 277.9 376.9 271.5 377 L 267 373.5 L 266 367.5 L 270.5 362 Z M 273 364 L 270 365 L 269 372 Q 270 375 276 374 Q 279 373 278 368 L 273 364 Z " /><path fill="rgb(254,121,35)" stroke="rgb(254,121,35)" stroke-width="1" opacity="1" d="M 286 362 L 288 362 L 288 367.5 L 289.5 368 L 295.5 362 L 297.5 362 L 292 368.5 L 299 376.5 L 296.5 377 L 289.5 371 Q 286.8 372.4 288 377 L 286 376.5 L 286 362 Z " /><path fill="rgb(255,121,35)" stroke="rgb(255,121,35)" stroke-width="1" opacity="1" d="M 114.5 115 L 123.5 115 L 132 120.5 Q 137.2 124.8 136 135.5 L 130.5 145 L 123.5 149 L 114.5 149 L 105 142.5 Q 100.5 138 102 127.5 Q 103.8 120.3 109.5 117 L 114.5 115 Z " /><path fill="rgb(255,121,35)" stroke="rgb(255,121,35)" stroke-width="1" opacity="1" d="M 174 118 L 191.5 121 L 216.5 131 Q 236.5 142.5 251 159.5 L 255 164.5 L 255 166.5 L 253 171.5 L 252 187.5 L 255 203.5 L 258 210.5 Q 266 224.5 278 234.5 L 278 240.5 L 277 241.5 L 277 252.5 L 276 253.5 L 275 264.5 L 267 288 L 258.5 283 L 236 319.5 L 232 328.5 L 232.5 330 Q 219.7 340.2 203.5 347 L 182.5 353 L 167.5 354 L 166.5 355 L 89 355 L 89 177.5 L 90.5 177 L 91.5 178 L 111.5 178 L 127.5 174 L 143 166 L 143 306.5 L 143.5 307 L 158.5 307 L 159.5 306 L 170.5 305 L 183.5 300 Q 196.9 292.4 206 280.5 Q 219.9 262.9 220 231.5 L 219 230.5 L 218 217.5 L 215 207.5 Q 208.3 190.7 195.5 180 Q 185.6 171.4 171.5 167 L 160.5 165 L 144 164.5 L 159 151.5 L 170 133.5 L 174 118 Z " /><path fill="rgb(255,121,35)" stroke="rgb(255,121,35)" stroke-width="1" opacity="1" d="M 387.5 331 L 396.5 334 L 402 339.5 Q 405.3 344.2 404 353.5 L 398.5 362 Q 394.2 367.2 383.5 366 Q 376.3 364.2 373 358.5 Q 368.8 354.7 370 345.5 Q 371.9 337.9 377.5 334 L 387.5 331 Z " /><path fill="rgb(254,161,75)" stroke="rgb(254,161,75)" stroke-width="1" opacity="1" d="M 318.5 113 Q 374.2 111.3 404 135.5 L 383 177 L 380.5 177 L 371.5 171 L 349.5 163 L 331.5 161 L 317.5 164 L 309 170.5 Q 304.8 175.8 305 185.5 Q 307.4 194.1 314.5 198 L 338.5 211 L 345.5 213 L 368.5 224 L 395 244 L 403 254.5 L 408 264.5 L 411 277.5 L 411 289.5 L 410 290.5 L 409 303.5 L 407 310 Q 398.5 304.9 381.5 307 Q 363.8 311.3 355 324.5 Q 346.7 334.7 348 354.5 L 349 357 L 336.5 359 L 306.5 359 L 305.5 358 L 288.5 356 L 266.5 349 L 243.5 337 L 232 328.5 L 236 319.5 L 258.5 283 L 267 288 Q 265.9 290.7 268.5 290 L 273.5 294 L 295.5 305 L 308.5 309 L 318.5 310 L 319.5 309 L 329.5 309 L 337.5 307 L 348 299.5 Q 352.4 293.9 352 283.5 Q 350.3 274.3 343.5 270 L 329.5 261 L 289.5 242 L 277.5 234 L 267 223.5 Q 259.2 215.3 255 203.5 L 253 195.5 L 252 181.5 L 253 180.5 L 253 171.5 L 258 156.5 Q 264.5 142.5 275.5 133 L 297.5 119 L 318.5 113 Z " /><path fill="rgb(254,161,75)" stroke="rgb(254,161,75)" stroke-width="1" opacity="1" d="M 234.5 143 L 235.5 145 L 234.5 143 Z " /><path fill="rgb(254,161,75)" stroke="rgb(254,161,75)" stroke-width="1" opacity="1" d="M 242.5 150 L 243.5 152 L 242.5 150 Z " /><path fill="rgb(254,161,75)" stroke="rgb(254,161,75)" stroke-width="1" opacity="1" d="M 158.5 151 L 156.5 154 L 158.5 151 Z " /><path fill="rgb(254,161,75)" stroke="rgb(254,161,75)" stroke-width="1" opacity="1" d="M 151.5 158 L 149.5 161 L 151.5 158 Z " /><path fill="rgb(254,161,75)" stroke="rgb(254,161,75)" stroke-width="1" opacity="1" d="M 251.5 160 L 252.5 162 L 251.5 160 Z " /><path fill="rgb(254,161,75)" stroke="rgb(254,161,75)" stroke-width="1" opacity="1" d="M 195.5 180 L 199.5 185 L 195.5 180 Z " /><path fill="rgb(254,161,75)" stroke="rgb(254,161,75)" stroke-width="1" opacity="1" d="M 201.5 186 L 202.5 188 L 201.5 186 Z " /><path fill="rgb(254,161,75)" stroke="rgb(254,161,75)" stroke-width="1" opacity="1" d="M 219.5 231 L 220 238.5 L 219 238.5 L 219.5 231 Z " /><path fill="rgb(254,161,75)" stroke="rgb(254,161,75)" stroke-width="1" opacity="1" d="M 277.5 241 L 278 244.5 L 277 244.5 L 277.5 241 Z " /><path fill="rgb(254,161,75)" stroke="rgb(254,161,75)" stroke-width="1" opacity="1" d="M 205.5 280 L 204.5 282 L 205.5 280 Z " /><path fill="rgb(254,161,75)" stroke="rgb(254,161,75)" stroke-width="1" opacity="1" d="M 384.5 331 L 387 331.5 L 384.5 332 L 384.5 331 Z " /><path fill="rgb(254,161,75)" stroke="rgb(254,161,75)" stroke-width="1" opacity="1" d="M 388.5 331 L 391 331.5 L 388.5 332 L 388.5 331 Z " /><path fill="rgb(254,161,75)" stroke="rgb(254,161,75)" stroke-width="1" opacity="1" d="M 167.5 354 L 170 354.5 L 167.5 355 L 167.5 354 Z " /><path fill="rgb(254,161,75)" stroke="rgb(254,161,75)" stroke-width="1" opacity="1" d="M 374.5 360 L 375.5 362 L 374.5 360 Z " /><path fill="rgb(254,161,75)" stroke="rgb(254,161,75)" stroke-width="1" opacity="1" d="M 168 362 L 176.5 362 L 180 365.5 L 181 370.5 L 177.5 376 L 168 377 L 168 362 Z M 171 364 L 171 374 L 177 374 L 178 372 L 177 365 L 171 364 Z " /><path fill="rgb(254,161,75)" stroke="rgb(254,161,75)" stroke-width="1" opacity="1" d="M 186 362 L 194.5 362 L 195 364 Q 189.6 362.5 188 365.5 L 189.5 368 Q 195.3 366.3 194 370 Q 189.4 368.8 188 371.5 L 188 374 L 195 374 L 195 377 L 186 377 L 186 362 Z " /><path fill="rgb(254,161,75)" stroke="rgb(254,161,75)" stroke-width="1" opacity="1" d="M 201 362 L 208.5 362 L 211 364.5 Q 211.8 369.3 208.5 370 L 203 371 L 203 377 L 201 377 L 201 362 Z M 205 364 L 203 368 L 208 368 L 208 366 L 205 364 Z " /><path fill="rgb(254,161,75)" stroke="rgb(254,161,75)" stroke-width="1" opacity="1" d="M 220.5 362 Q 227.4 361.1 229 365.5 L 230 370.5 L 226.5 376 L 220.5 377 L 216 373.5 L 215 368.5 L 218.5 363 L 220.5 362 Z M 223 364 L 221 365 Q 217 366 218 372 Q 219 375 225 374 Q 228 373 227 368 L 223 364 Z " /><path fill="rgb(254,161,75)" stroke="rgb(254,161,75)" stroke-width="1" opacity="1" d="M 237.5 362 L 236.5 364 L 237.5 362 Z " /><path fill="rgb(254,161,75)" stroke="rgb(254,161,75)" stroke-width="1" opacity="1" d="M 288.5 362 L 289.5 367 L 295 362.5 L 288 368 L 288.5 362 Z " /><path fill="rgb(254,161,75)" stroke="rgb(254,161,75)" stroke-width="1" opacity="1" d="M 251.5 364 L 255 364.5 L 251.5 365 L 251.5 364 Z " /><path fill="rgb(254,161,75)" stroke="rgb(254,161,75)" stroke-width="1" opacity="1" d="M 258.5 364 L 261 364.5 L 258.5 365 L 258.5 364 Z " /><path fill="rgb(254,161,75)" stroke="rgb(254,161,75)" stroke-width="1" opacity="1" d="M 244.5 369 L 245.5 371 L 244.5 369 Z " /><path fill="rgb(254,161,75)" stroke="rgb(254,161,75)" stroke-width="1" opacity="1" d="M 292.5 369 L 293.5 371 L 292.5 369 Z " /><path fill="rgb(254,161,75)" stroke="rgb(254,161,75)" stroke-width="1" opacity="1" d="M 288.5 372 L 289 376.5 L 288 376.5 L 288.5 372 Z " /><path fill="rgb(254,161,75)" stroke="rgb(254,161,75)" stroke-width="1" opacity="1" d="M 245.5 374 L 244.5 376 L 245.5 374 Z " /><path fill="rgb(254,161,75)" stroke="rgb(254,161,75)" stroke-width="1" opacity="1" d="M 278.5 374 L 277.5 376 L 278.5 374 Z " /><path fill="rgb(254,161,75)" stroke="rgb(254,161,75)" stroke-width="1" opacity="1" d="M 294.5 375 L 295.5 377 L 294.5 375 Z " /></svg>