<?xml version="1.0" encoding="UTF-8"?>
<svg width="400" height="300" viewBox="0 0 400 300" fill="none" xmlns="http://www.w3.org/2000/svg">
  <path d="M200 250C250 250 290 210 290 160C290 110 250 70 200 70C150 70 110 110 110 160C110 210 150 250 200 250Z" fill="#E2E8F0"/>
  <path d="M170 140C180 140 190 130 190 120C190 110 180 100 170 100C160 100 150 110 150 120C150 130 160 140 170 140Z" fill="#3B82F6"/>
  <path d="M230 140C240 140 250 130 250 120C250 110 240 100 230 100C220 100 210 110 210 120C210 130 220 140 230 140Z" fill="#3B82F6"/>
  <path d="M200 200C220 200 240 190 240 180C240 170 220 160 200 160C180 160 160 170 160 180C160 190 180 200 200 200Z" fill="#3B82F6"/>
</svg> 